<!DOCTYPE svg PUBLIC "-//W3C//DTD SVG 1.1//EN" "http://www.w3.org/Graphics/SVG/1.1/DTD/svg11.dtd">
<!-- Uploaded to: SVG Repo, www.svgrepo.com, Transformed by: SVG Repo Mixer Tools -->
<svg height="800px" width="800px" version="1.1" id="Layer_1" xmlns="http://www.w3.org/2000/svg" xmlns:xlink="http://www.w3.org/1999/xlink" viewBox="0 0 512 512" xml:space="preserve" fill="#000000">
<g id="SVGRepo_bgCarrier" stroke-width="0"/>
<g id="SVGRepo_tracerCarrier" stroke-linecap="round" stroke-linejoin="round"/>
<g id="SVGRepo_iconCarrier"> <g> <circle style="fill:#9abcf2;" cx="256" cy="119.208" r="109.009"/> <path style="fill:#9abcf2;" d="M486.602,501.801c0-127.358-103.245-230.602-230.602-230.602S25.398,374.442,25.398,501.801H486.602 z"/> </g> <g> <path style="fill:#4D4D4D;" d="M256,238.423c-65.733,0-119.211-53.479-119.211-119.211S190.267,0,256,0 s119.211,53.479,119.211,119.211S321.733,238.423,256,238.423z M256,20.398c-54.485,0-98.813,44.328-98.813,98.813 s44.327,98.813,98.813,98.813c54.485,0,98.813-44.328,98.813-98.813S310.485,20.398,256,20.398z"/> <path style="fill:#4D4D4D;" d="M486.602,512H25.398c-5.633,0-10.199-4.567-10.199-10.199c0-64.319,25.048-124.791,70.529-170.272 C131.209,286.048,191.68,261.001,256,261.001c64.319,0,124.791,25.048,170.272,70.529s70.53,105.952,70.53,170.272 C496.801,507.433,492.234,512,486.602,512z M35.831,491.602H476.17C470.821,374.789,374.111,281.398,256,281.398 S41.179,374.789,35.831,491.602z"/> <path style="fill:#4D4D4D;" d="M182.644,478.343H66.295c-5.633,0-10.199-4.567-10.199-10.199c0-5.632,4.566-10.199,10.199-10.199 h116.349c5.633,0,10.199,4.567,10.199,10.199C192.843,473.775,188.277,478.343,182.644,478.343z"/> <path style="fill:#4D4D4D;" d="M225.621,478.343h-7.337c-5.633,0-10.199-4.567-10.199-10.199c0-5.632,4.566-10.199,10.199-10.199 h7.337c5.633,0,10.199,4.567,10.199,10.199C235.82,473.775,231.254,478.343,225.621,478.343z"/> </g> </g>
</svg>